# xmcd
#
# Track frame offsets:
#	150
#	18990
#	34565
#
# Disc length: 703 seconds
#
# Revision: 0
# Processed by: cddbd v1.5.2PL0 Copyright (c) Steve Scherf et al.
# Submitted via: dBpowerAMP V4.0
#
DISCID=1602bd03
DTITLE=Bjarne Lunde - Bjarne Lunde
DYEAR=2009
DGENRE=Pop/rock
TTITLE0=Make a fool of me
TTITLE1=Hard times
TTITLE2=Somebody
EXTD=
EXTT0=
EXTT1=
EXTT2=
PLAYORDER=
